<svg xmlns="http://www.w3.org/2000/svg" width="100" height="100" style="shape-rendering:geometricprecision;text-rendering:geometricprecision;image-rendering:optimizeQuality;fill-rule:evenodd;clip-rule:evenodd"><path fill="#464649" d="M77.5 59.5q-3.275-5.638-10-5 1.417-9.195-7.5-11-2.718-.01-4.5 2-1.254-5.718-5-10 7.69-9.645 20-6.5Q86.219 35.57 82 52.5q-1.518 4.053-4.5 7" style="opacity:.95"/><path fill="#f1f1f0" d="M50.5 35.5q3.746 4.282 5 10 1.782-2.01 4.5-2 8.917 1.805 7.5 11 6.725-.638 10 5 1.497 6.755-4 11.5a625 625 0 0 1-50 0q-10.681-9.126-2-20 3.614-2.56 8-2.5-.098-13.342 13-15 4.254.135 8 2" style="opacity:.973"/></svg>