<svg xmlns="http://www.w3.org/2000/svg" width="100" height="100" style="shape-rendering:geometricprecision;text-rendering:geometricprecision;image-rendering:optimizeQuality;fill-rule:evenodd;clip-rule:evenodd"><path fill="#474749" d="M75.5 60.5q-3.507-6.358-11-6 .502-11.987-11-9-2.36-6.355-8-10 4.01-9.251 14-6.5 5.337 2.838 7.5 8.5 9.56-3.2 9.5 7 10.728 1.5 7.5 12-3.212 4.23-8.5 4" style="opacity:.941"/><path fill="#f1f1f0" d="M45.5 35.5q5.64 3.645 8 10 11.502-2.987 11 9 7.493-.358 11 6 .51 6.73-5 10.5-25.636 1.456-51-1-6.99-8.176-1.5-17.5 3.945-3.983 9-3 1.437-17.715 18.5-14" style="opacity:.974"/></svg>