<svg xmlns="http://www.w3.org/2000/svg" width="100" height="100" style="shape-rendering:geometricprecision;text-rendering:geometricprecision;image-rendering:optimizeQuality;fill-rule:evenodd;clip-rule:evenodd"><path fill="#464648" d="M69.5 50.5q-2.488-5-8-5-.032-9.892-9.5-7-2.032-5.09-5.5-9 .624-3.38 4-4.5 9.68-3.064 13 6.5 7.641-2.16 8 6 8.393 1.59 5.5 10-2.993 3.37-7.5 3" style="opacity:.922"/><path fill="#f1f1f0" d="M46.5 29.5q3.468 3.91 5.5 9 9.468-2.892 9.5 7 5.512 0 8 5 1.016 5.66-4 8.5-12.99.75-26 .5-1.955-5.973-4 0-17.157 1.117-12.5-15 3.595-3.423 8.5-4 1.1-14.088 15-11" style="opacity:.963"/><path fill="#3d3d3f" d="M39.5 59.5q-2.253 3.783-4 0 2.045-5.973 4 0" style="opacity:.42"/><path fill="#424244" d="M51.5 60.5q4.335.749 2 4.5a4.93 4.93 0 0 1-3 .5q-.2-2.687 1-5" style="opacity:.714"/><path fill="#48484a" d="M33.5 63.5q2.77-.417 4 2a19 19 0 0 1-3 5 7.3 7.3 0 0 1-3-2 16 16 0 0 0 2-5" style="opacity:.618"/><path fill="#48484a" d="M42.5 62.5q5.516 2.547.5 7-4.32-2.967-.5-7" style="opacity:.682"/><path fill="#474849" d="M39.5 69.5q6.775 1.688 1 5-3.307-1.923-1-5" style="opacity:.531"/><path fill="#474849" d="M47.5 69.5h4q.475 5.507-5 5a20.7 20.7 0 0 1 1-5" style="opacity:.672"/></svg>