<svg xmlns="http://www.w3.org/2000/svg" width="100" height="100" style="shape-rendering:geometricprecision;text-rendering:geometricprecision;image-rendering:optimizeQuality;fill-rule:evenodd;clip-rule:evenodd"><path fill="#484749" d="M71.5 48.5q-3.068-3.726-8-3 .06-10.2-9.5-7-1.107-4.722-4.5-8 8.877-9.803 21-3.5 7.056 7.325 4.5 17.5-.99 2.736-3.5 4" style="opacity:.939"/><path fill="#f1f1f1" d="M49.5 30.5q3.393 3.278 4.5 8 9.56-3.2 9.5 7 4.932-.726 8 3 2.06 6.654-4 10.5-12.99.75-26 .5v-3q-3.178-.048-4 3-17.073 1.194-12.5-15 3.212-4.23 8.5-4-.673-11.142 10.5-12 3.267-.158 5.5 2" style="opacity:.956"/><path fill="#4a4a4c" d="M41.5 59.5q-2 4-4 0 .822-3.048 4-3Z" style="opacity:.173"/><path fill="#464648" d="M53.5 60.5q5.185 1.554 1 5-3.306-1.923-1-5" style="opacity:.648"/><path fill="#484749" d="M43.5 62.5h4q.978 6.09-5 6Z" style="opacity:.642"/><path fill="#49484a" d="M35.5 63.5q2.77-.417 4 2a19 19 0 0 1-3 5q-2.07-.75-2-3 .519-2.025 1-4" style="opacity:.655"/><path fill="#484849" d="M50.5 68.5q4.196 1.283 2 5-1.783 1.393-4 1 .156-3.305 2-6" style="opacity:.629"/><path fill="#484849" d="M41.5 69.5h3q.504 7.338-4 2.5.365-1.353 1-2.5" style="opacity:.536"/></svg>