<svg xmlns="http://www.w3.org/2000/svg" width="100" height="100" style="shape-rendering:geometricprecision;text-rendering:geometricprecision;image-rendering:optimizeQuality;fill-rule:evenodd;clip-rule:evenodd"><path fill="#464648" d="M72.5 52.5q-2.715-5.715-9-5 .245-11.767-11-9-2.358-5.848-7-10 2.383-6.575 9.5-6 3.45-.009 6.5 1.5a49 49 0 0 0 5 6.5q8.065-1.497 10 7 9.412 4.53 4 13.5-3.77 1.878-8 1.5" style="opacity:.924"/><path fill="#f1f1f0" d="M45.5 28.5q4.642 4.152 7 10 11.246-2.767 11 9 6.285-.715 9 5 2.11 6.573-4 10.5a124 124 0 0 1-26 1.5q-.129-1.495 1-2.5a10.25 10.25 0 0 1-4-1.5 19.2 19.2 0 0 0 3-5q.814-.09 1-1-3.71-1.945-7 0a43.5 43.5 0 0 0-3.5 8q-1.063 1.32-2.5 2-16.325-.066-13.5-16 2.95-5.86 9.5-7 3.527-15.562 19-13" style="opacity:.95"/><path fill="#eea38f" d="M36.5 54.5q3.29-1.945 7 0-.186.91-1 1-2.648-1.442-6-1" style="opacity:1"/><path fill="#ec6a47" d="M36.5 54.5q3.352-.442 6 1a19.2 19.2 0 0 1-3 5 10.25 10.25 0 0 0 4 1.5q-1.129 1.005-1 2.5-5.467 5.97-11 12l-1-1 4-8q-2.748-.835-4-3 1.438-.68 2.5-2a43.5 43.5 0 0 1 3.5-8" style="opacity:.843"/></svg>