<svg xmlns="http://www.w3.org/2000/svg" width="100" height="100" style="shape-rendering:geometricprecision;text-rendering:geometricprecision;image-rendering:optimizeQuality;fill-rule:evenodd;clip-rule:evenodd"><path fill="#474849" d="M47.5 29.5q5.847-.188 4.5 5 4.652-6.386 5 1-5.301 3.033-4.5 9 1.983.255 3.5-1a58 58 0 0 0 3-8q2.967-1.974 4.5 1.5-1.526 1.575-.5 3.5 4.08-4.29 5 1a6.98 6.98 0 0 1-3.5 2.5q5.065.46 4 5.5a39 39 0 0 1-9.5-2q-2.25.25-2.5 2.5.351 2.599 3 2.5a87 87 0 0 1 9-2q1.065 5.04-4 5.5 2.704.955 4 3.5-1.872 3.285-5 1-1.428 2.318-1 5a4.93 4.93 0 0 1-3-.5 56.5 56.5 0 0 1-3.5-8.5q-1.517-1.255-3.5-1-.801 5.967 4.5 9a8.43 8.43 0 0 1 .5 4q-3.604.16-5.5-3 1.347 5.188-4.5 5 1.017-8.238-3.5-2-2.25-.25-2.5-2.5a25.4 25.4 0 0 1 5.5-6.5q1.25-4.75-3.5-3.5a55 55 0 0 0-3 8.5q-1.783 1.393-4 1 .24-2.55-.5-5-3.3 2.235-5.5-1 1.296-2.545 4-3.5-3.11-.177-4-3 .25-2.25 2.5-2.5 4.193 1.617 8.5 1.5 2.145-2.82-1-4.5a44.3 44.3 0 0 1-10 2q-1.064-5.04 4-5.5-6.18-1.995-1.5-5.5 1.31.354 2.5 1 .847-3.014 3-5 3.515 3.742 4.5 9 5 2.5 4-3a25.4 25.4 0 0 1-5.5-6.5q.17-1.92 2-2.5a15 15 0 0 1 3.5 3q.74-2.45.5-5m1 18q5.185 1.554 1 5-3.306-1.923-1-5" style="opacity:.795"/></svg>