<?xml version="1.0" encoding="UTF-8"?>
<!DOCTYPE svg PUBLIC "-//W3C//DTD SVG 1.1//EN" "http://www.w3.org/Graphics/SVG/1.1/DTD/svg11.dtd">
<svg xmlns="http://www.w3.org/2000/svg" version="1.1" width="100px" height="100px" style="shape-rendering:geometricPrecision; text-rendering:geometricPrecision; image-rendering:optimizeQuality; fill-rule:evenodd; clip-rule:evenodd" xmlns:xlink="http://www.w3.org/1999/xlink">
<g><path style="opacity:0.95" fill="#464649" d="M 77.5,59.5 C 75.3166,55.7413 71.9832,54.0747 67.5,54.5C 68.4452,48.3705 65.9452,44.7038 60,43.5C 58.1878,43.4934 56.6878,44.16 55.5,45.5C 54.6639,41.6882 52.9972,38.3549 50.5,35.5C 55.6264,29.0696 62.2931,26.9029 70.5,29C 80.9791,33.3805 84.8124,41.2138 82,52.5C 80.9879,55.2018 79.4879,57.5351 77.5,59.5 Z"/></g>
<g><path style="opacity:0.973" fill="#f1f1f0" d="M 50.5,35.5 C 52.9972,38.3549 54.6639,41.6882 55.5,45.5C 56.6878,44.16 58.1878,43.4934 60,43.5C 65.9452,44.7038 68.4452,48.3705 67.5,54.5C 71.9832,54.0747 75.3166,55.7413 77.5,59.5C 78.4978,64.0033 77.1645,67.8366 73.5,71C 56.8333,71.6667 40.1667,71.6667 23.5,71C 16.3791,64.9163 15.7124,58.2496 21.5,51C 23.9088,49.2932 26.5755,48.4598 29.5,48.5C 29.4349,39.6051 33.7682,34.6051 42.5,33.5C 45.336,33.5905 48.0027,34.2571 50.5,35.5 Z"/></g>
</svg>
