<?xml version="1.0" encoding="UTF-8"?>
<!DOCTYPE svg PUBLIC "-//W3C//DTD SVG 1.1//EN" "http://www.w3.org/Graphics/SVG/1.1/DTD/svg11.dtd">
<svg xmlns="http://www.w3.org/2000/svg" version="1.1" width="100px" height="100px" style="shape-rendering:geometricPrecision; text-rendering:geometricPrecision; image-rendering:optimizeQuality; fill-rule:evenodd; clip-rule:evenodd" xmlns:xlink="http://www.w3.org/1999/xlink">
<g><path style="opacity:0.795" fill="#474849" d="M 47.5,29.5 C 51.3979,29.3749 52.8979,31.0415 52,34.5C 55.101,30.2423 56.7677,30.5756 57,35.5C 53.4656,37.5217 51.9656,40.5217 52.5,44.5C 53.8221,44.67 54.9887,44.3366 56,43.5C 57.1965,40.9109 58.1965,38.2442 59,35.5C 60.9776,34.1837 62.4776,34.6837 63.5,37C 62.4829,38.0495 62.3162,39.2161 63,40.5C 65.7195,37.6409 67.3862,37.9743 68,41.5C 67.0975,42.7014 65.9308,43.5348 64.5,44C 67.8762,44.3071 69.2096,46.1405 68.5,49.5C 65.2604,49.2322 62.0937,48.5655 59,47.5C 57.5,47.6667 56.6667,48.5 56.5,50C 56.7336,51.7324 57.7336,52.5658 59.5,52.5C 62.4788,51.6716 65.4788,51.0049 68.5,50.5C 69.2096,53.8595 67.8762,55.6929 64.5,56C 66.3031,56.6368 67.6364,57.8035 68.5,59.5C 67.2524,61.69 65.5857,62.0234 63.5,60.5C 62.5481,62.0453 62.2148,63.712 62.5,65.5C 61.448,65.6495 60.448,65.4828 59.5,65C 58.1084,62.2762 56.9417,59.4429 56,56.5C 54.9887,55.6634 53.8221,55.33 52.5,55.5C 51.9656,59.4783 53.4656,62.4783 57,64.5C 57.49,65.7932 57.6567,67.1266 57.5,68.5C 55.0968,68.607 53.2635,67.607 52,65.5C 52.8979,68.9585 51.3979,70.6251 47.5,70.5C 48.1779,65.0081 47.0113,64.3414 44,68.5C 42.5,68.3333 41.6667,67.5 41.5,66C 42.9443,63.5515 44.7776,61.3848 47,59.5C 47.8333,56.3333 46.6667,55.1667 43.5,56C 42.2728,58.7359 41.2728,61.5692 40.5,64.5C 39.3112,65.4287 37.9778,65.762 36.5,65.5C 36.6602,63.8008 36.4935,62.1341 36,60.5C 33.7997,61.9901 31.9664,61.6568 30.5,59.5C 31.3636,57.8035 32.6969,56.6368 34.5,56C 32.4267,55.8817 31.0933,54.8817 30.5,53C 30.6667,51.5 31.5,50.6667 33,50.5C 35.7952,51.5783 38.6285,52.0783 41.5,52C 42.9295,50.1197 42.5962,48.6197 40.5,47.5C 37.243,48.5514 33.9097,49.2181 30.5,49.5C 29.7904,46.1405 31.1238,44.3071 34.5,44C 30.3804,42.6702 29.8804,40.8368 33,38.5C 33.8732,38.7355 34.7065,39.0688 35.5,39.5C 36.0653,37.4904 37.0653,35.8237 38.5,34.5C 40.8426,36.9954 42.3426,39.9954 43,43.5C 46.3333,45.1667 47.6667,44.1667 47,40.5C 44.7776,38.6152 42.9443,36.4485 41.5,34C 41.6135,32.7202 42.2801,31.8869 43.5,31.5C 44.8139,32.3128 45.9805,33.3128 47,34.5C 47.4935,32.8659 47.6602,31.1992 47.5,29.5 Z M 48.5,47.5 C 51.9563,48.5362 52.2896,50.2029 49.5,52.5C 47.2957,51.218 46.9624,49.5514 48.5,47.5 Z"/></g>
</svg>
